# xmcd
#
# Track frame offsets:
#	150
#	4203
#	13922
#	26250
#	36258
#	41211
#	46363
#	59603
#	75085
#	87781
#	102040
#	106239
#	119907
#	131407
#	138909
#
# Disc length: 2060 seconds
#
# Revision: 0
# Processed by: cddbd v1.5.1PL2 Copyright (c) Steve Scherf et al.
# Submitted via: dBpowerAMP V4.0
#
DISCID=be080a0f
DTITLE=Renée Martel - Un amour qui ne veut pas mourrir
DYEAR=2006
DGENRE=Folk - Country
TTITLE0=Un coin du ciel
TTITLE1=Simple passager
TTITLE2=Liverpool
TTITLE3=Je vais à Londres
TTITLE4=Prends ma main
TTITLE5=Nos jeux d'enfants
TTITLE6=Mon roman d'amour
TTITLE7=Un amour qui ne veut pas mourrir
TTITLE8=Crazy
TTITLE9=Si on pouvait recommencer
TTITLE10=Donne-moi un jour
TTITLE11=Cowgirl dorée
TTITLE12=Darling
TTITLE13=You cheatin' heart
TTITLE14=C'est mon histoire
EXTD=
EXTT0=
EXTT1=
EXTT2=
EXTT3=
EXTT4=
EXTT5=
EXTT6=
EXTT7=
EXTT8=
EXTT9=
EXTT10=
EXTT11=
EXTT12=
EXTT13=
EXTT14=
PLAYORDER=
